<?xml version="1.0" standalone="no"?>
<!DOCTYPE svg PUBLIC "-//W3C//DTD SVG 20010904//EN"
 "http://www.w3.org/TR/2001/REC-SVG-20010904/DTD/svg10.dtd">
<svg version="1.0" xmlns="http://www.w3.org/2000/svg"
 width="383.000000pt" height="383.000000pt" viewBox="0 0 383.000000 383.000000"
 preserveAspectRatio="xMidYMid meet">
<metadata>
Created by potrace 1.14, written by Peter Selinger 2001-2017
</metadata>
<g transform="translate(0.000000,383.000000) scale(0.100000,-0.100000)"
fill="#000000" stroke="none">
<path d="M1375 3222 c-25 -3 -126 -23 -185 -37 -33 -7 -185 -59 -190 -64 -3
-3 -32 -19 -65 -34 -140 -67 -337 -228 -448 -367 l-35 -44 -142 3 c-78 1 -170
4 -206 6 -35 2 -64 2 -64 0 0 -1 74 -35 163 -75 l164 -73 -42 -96 c-39 -90
-71 -189 -81 -250 -2 -14 -7 -37 -10 -51 -8 -35 -15 -96 -18 -157 -3 -60 -5
-63 -49 -81 l-32 -12 30 6 c16 3 34 6 39 7 5 1 11 -27 12 -63 2 -36 6 -78 8
-93 5 -23 1 -29 -19 -37 -14 -5 -25 -12 -25 -15 0 -2 11 0 24 5 24 9 25 7 41
-67 10 -42 23 -94 31 -115 l14 -39 -33 -14 c-17 -8 -26 -14 -19 -15 7 0 22 5
33 10 16 9 21 7 30 -17 39 -104 109 -228 180 -320 31 -39 44 -63 36 -67 -8 -3
-7 -5 3 -5 8 -1 51 -36 95 -79 205 -198 458 -321 742 -360 83 -12 263 -12 335
-1 29 5 70 11 90 14 150 23 390 130 530 236 233 178 397 412 474 679 25 88 31
99 83 149 82 80 377 360 409 389 15 14 66 61 113 106 47 44 149 141 227 215
78 73 139 138 135 144 -3 5 -2 7 3 4 6 -3 16 -2 24 4 11 6 4 9 -25 10 -22 1
-67 3 -100 4 -33 2 -141 6 -240 9 -99 4 -243 9 -320 12 -77 3 -207 7 -290 9
-139 4 -151 5 -165 25 -232 327 -487 501 -860 585 -71 17 -326 27 -405 17z
m335 -86 c8 -3 33 -8 55 -11 42 -6 106 -22 140 -35 117 -44 149 -58 205 -88
124 -68 223 -143 313 -239 44 -47 127 -151 127 -160 0 -2 -39 -1 -87 1 -49 3
-180 8 -293 12 -235 7 -352 11 -865 29 -55 2 -197 7 -315 10 -118 4 -251 9
-295 10 -44 2 -92 4 -107 4 -16 1 -28 5 -28 9 0 17 165 178 234 229 116 86
276 163 411 199 61 16 80 20 170 34 53 8 309 5 335 -4z m-1168 -677 c51 -22
113 -50 138 -61 25 -11 290 -130 590 -263 300 -134 602 -269 673 -300 l127
-58 1 -36 c1 -20 2 -47 4 -61 1 -14 5 -63 9 -110 4 -47 9 -101 11 -120 2 -19
7 -71 10 -115 4 -44 8 -96 10 -115 2 -19 7 -75 10 -125 4 -49 8 -91 10 -93 3
-3 17 10 150 136 87 83 400 381 408 388 15 15 -10 -51 -53 -141 -176 -368
-523 -626 -925 -689 -174 -27 -406 -9 -570 45 -90 30 -235 103 -317 159 -78
53 -208 169 -193 171 6 0 17 2 25 4 8 1 29 5 45 8 17 3 57 10 90 16 33 6 76
13 95 16 50 8 145 24 177 30 27 6 323 58 393 70 40 7 404 73 435 79 11 2 41 7
68 10 26 4 47 11 47 17 0 5 1 12 2 17 23 100 25 122 9 122 -9 0 -83 -19 -166
-41 -82 -23 -217 -59 -300 -81 -82 -21 -256 -68 -385 -104 -129 -35 -287 -78
-350 -95 -63 -17 -135 -36 -160 -43 l-45 -12 -56 71 c-30 38 -65 87 -77 107
l-21 38 27 6 c15 3 61 14 102 25 41 10 86 20 100 23 28 5 291 66 525 122 83
19 161 37 175 40 14 2 32 7 40 10 8 3 33 8 55 11 22 3 50 9 63 14 13 5 56 16
95 24 40 8 141 31 225 51 l153 36 -42 40 -43 41 -50 -13 c-28 -7 -145 -41
-261 -75 -115 -34 -275 -81 -355 -105 -215 -62 -464 -136 -649 -191 -154 -46
-165 -48 -177 -32 -22 29 -73 157 -66 164 4 4 34 14 67 23 33 9 67 20 75 23 8
3 20 7 25 9 41 11 262 78 310 93 33 11 119 38 190 60 183 57 488 151 499 154
4 2 -24 19 -62 40 -76 39 -74 39 -157 2 -16 -7 -133 -54 -260 -105 -126 -50
-239 -95 -250 -100 -11 -5 -90 -37 -175 -70 -85 -34 -182 -73 -214 -86 -69
-29 -67 -30 -91 65 -26 104 -27 129 -7 135 89 27 411 122 462 136 36 10 157
46 270 79 113 34 211 61 217 61 7 0 13 3 13 8 0 10 -94 62 -112 62 -8 0 -100
-33 -204 -74 -225 -88 -622 -241 -646 -249 -23 -8 -25 -4 -32 84 -4 58 -2 79
8 88 7 6 46 20 87 30 41 11 115 31 164 45 50 14 106 30 125 36 19 5 46 13 60
17 14 4 30 8 35 9 15 3 238 65 255 71 10 3 -2 13 -34 29 l-49 23 -51 -20 c-92
-36 -572 -208 -591 -212 -11 -2 -11 -3 -2 98 7 77 37 208 63 276 24 65 73 169
79 169 3 0 47 -18 97 -41z"/>
<path d="M338 1273 c7 -3 16 -2 19 1 4 3 -2 6 -13 5 -11 0 -14 -3 -6 -6z"/>
</g>
</svg>
