<?xml version="1.0" encoding="utf-8"?>
<!-- Generator: Adobe Illustrator 28.0.0, SVG Export Plug-In . SVG Version: 6.00 Build 0)  -->
<svg version="1.1" id="Layer_1" xmlns="http://www.w3.org/2000/svg" xmlns:xlink="http://www.w3.org/1999/xlink" x="0px" y="0px"
	 viewBox="0 0 311.72 55.06" style="enable-background:new 0 0 311.72 55.06;" xml:space="preserve">
<style type="text/css">
	.st0{display:none;}
	.st1{display:inline;}
	.st2{display:inline;fill:#F7941E;}
</style>
<g>
	<g>
		<g>
			<path d="M29.92,54.03c-14.9,0-27.01-12.12-27.01-27.01C2.91,12.12,15.03,0,29.92,0c14.9,0,27.01,12.12,27.01,27.01
				C56.94,41.91,44.82,54.03,29.92,54.03z M29.92,1.65c-13.99,0-25.37,11.38-25.37,25.37s11.38,25.37,25.37,25.37
				c13.99,0,25.37-11.38,25.37-25.37S43.91,1.65,29.92,1.65z"/>
		</g>
		<polygon points="7.03,45.19 39.82,39.42 40.37,36.2 		"/>
		<polygon points="3.68,40.67 40.09,32.22 38.21,30.5 		"/>
		<polygon points="30.4,28.25 1.82,37.05 27.54,26.71 		"/>
		<polygon points="25.24,24.88 0.72,32.07 22.76,23.52 		"/>
		<polygon points="20.09,22.37 0,27.96 18.04,21.43 		"/>
	</g>
	<path d="M59.8,29.43l16.6-15.69L52.66,24.54C55.15,26.02,57.54,27.65,59.8,29.43z"/>
	<path d="M54.92,23.58l21.47-9.83L9.98,11.52c8.99,0.58,17.93,1.72,26.6,4.17C42.91,17.48,49.25,20.19,54.92,23.58z"/>
	<path d="M52.66,24.54L41,29.84l1.38,16.06L59.8,29.43C57.54,27.65,55.15,26.02,52.66,24.54z"/>
	<path d="M41.19,29.9l14.03-6.47c-5.67-3.39-12.31-5.95-18.65-7.74c-8.67-2.45-17.61-3.59-26.6-4.17l-10.83-0.36L41.19,29.9z"/>
</g>
<g class="st0">
	<path class="st1" d="M-50.94,95.59v7.98h12.36v5.54h-12.36v7.5h13.93v5.5h-18.82V90.18h18.82v5.41H-50.94z"/>
	<path class="st1" d="M-25.8,106.32l-9.71-16.1h6.11l6.63,11.47l6.63-11.47h6.08l-9.67,16.1l9.5,15.79h-6.11l-6.42-11.12
		l-6.43,11.12h-6.11L-25.8,106.32z"/>
	<path class="st1" d="M-8.31,90.26h9.95c2.54,0,4.68,1.09,6.42,3.27c1.75,2.18,2.62,4.77,2.62,7.76c0,2.91-0.87,5.47-2.62,7.68
		c-1.72,2.21-3.83,3.32-6.32,3.32h-2.24v-4.62h2.1c1.42,0,2.62-0.58,3.6-1.75c0.98-1.19,1.47-2.72,1.47-4.58
		c0-1.92-0.49-3.46-1.47-4.62s-2.18-1.75-3.6-1.75h-5.03v27.13h-4.89V90.26z"/>
	<path class="st1" d="M18.83,95.59v7.98h12.36v5.54H18.83v7.5h13.93v5.5H13.94V90.18h18.82v5.41H18.83z"/>
	<path class="st1" d="M40.17,95.72l-0.04,26.17h-4.92L35.24,90h9.29c1.35,0,2.57,0.28,3.67,0.83c1.09,0.52,1.97,1.19,2.62,2.01
		c0.68,0.81,1.25,1.72,1.71,2.71c0.44,1.02,0.76,1.96,0.94,2.83c0.16,0.9,0.24,1.73,0.24,2.49c0,1.8-0.36,3.61-1.08,5.41
		c-0.75,1.8-1.77,3.17-3.07,4.1l8.17,11.73h-7.79l-7.54-11.3v-4.62c0.79,0.06,1.69,0.09,2.69,0.09c1.02,0,1.92-0.51,2.69-1.53
		c0.79-0.99,1.19-2.27,1.19-3.84c0-1.42-0.41-2.65-1.22-3.66c-0.82-1.02-1.8-1.53-2.97-1.53H40.17z"/>
	<path class="st1" d="M77.11,95.59h-7.3v26.52h-4.89V95.59h-7.33v-5.41h19.52V95.59z"/>
	<path class="st2" d="M99.76,122.11H89.68V90.18h10.08c3.65,0,6.65,1.34,9,4.01c1.25,1.42,2.2,3.15,2.84,5.17
		c0.64,2.02,0.96,4.28,0.96,6.78c0,2.53-0.32,4.81-0.96,6.83c-0.64,2.02-1.59,3.74-2.84,5.17c-1.14,1.31-2.47,2.3-3.99,2.97
		C103.24,121.77,101.57,122.11,99.76,122.11z M94.57,116.7h5.2c0.91,0,1.83-0.13,2.76-0.39c0.93-0.26,1.78-0.78,2.53-1.55
		c0.76-0.77,1.38-1.84,1.87-3.21c0.49-1.37,0.73-3.16,0.73-5.37c0-2.21-0.25-4.01-0.73-5.39c-0.49-1.38-1.12-2.45-1.89-3.21
		c-0.77-0.76-1.62-1.26-2.55-1.53c-0.93-0.26-1.84-0.39-2.72-0.39h-5.2V116.7z"/>
	<path class="st2" d="M119.58,95.59v7.98h12.36v5.54h-12.36v7.5h13.93v5.5h-18.82V90.18h18.82v5.41H119.58z"/>
	<path class="st2" d="M155.58,116.7l-1.71,5.41h-16.69V90.18h4.89v26.52H155.58z"/>
	<path class="st2" d="M162.88,122.11h-4.89V90.22h4.89V122.11z"/>
	<path class="st2" d="M190.01,90.22l-12.15,31.89h-0.28l-12.12-31.89h5.38l6.88,18.5l6.88-18.5H190.01z"/>
	<path class="st2" d="M196.5,95.59v7.98h12.36v5.54H196.5v7.5h13.93v5.5h-18.82V90.18h18.82v5.41H196.5z"/>
	<path class="st2" d="M217.84,95.72l-0.04,26.17h-4.92L212.92,90h9.29c1.35,0,2.57,0.28,3.67,0.83c1.09,0.52,1.97,1.19,2.62,2.01
		c0.68,0.81,1.25,1.72,1.71,2.71c0.44,1.02,0.76,1.96,0.94,2.83c0.16,0.9,0.24,1.73,0.24,2.49c0,1.8-0.36,3.61-1.08,5.41
		c-0.75,1.8-1.77,3.17-3.07,4.1l8.17,11.73h-7.79l-7.54-11.3v-4.62c0.79,0.06,1.69,0.09,2.69,0.09c1.02,0,1.92-0.51,2.69-1.53
		c0.79-0.99,1.19-2.27,1.19-3.84c0-1.42-0.41-2.65-1.22-3.66c-0.82-1.02-1.8-1.53-2.97-1.53H217.84z"/>
	<path class="st2" d="M257.86,90.22c-0.65,1.34-1.4,2.86-2.25,4.58c-0.85,1.72-1.72,3.47-2.6,5.26c-0.88,1.79-1.76,3.55-2.62,5.28
		c-0.86,1.73-1.62,3.29-2.27,4.69v12.08h-4.89v-12.08c-1.51-3.32-3.12-6.62-4.82-9.9c-1.7-3.29-3.32-6.59-4.85-9.9h5.69
		c1.05,2.18,2.12,4.44,3.21,6.76c1.09,2.33,2.17,4.58,3.21,6.76c0.51-1.02,1.05-2.11,1.61-3.27c0.56-1.16,1.12-2.33,1.68-3.51
		c0.56-1.18,1.11-2.34,1.66-3.49c0.55-1.15,1.07-2.23,1.55-3.25H257.86z"/>
	<path class="st1" d="M258.67,119.23c0,0.9-0.25,1.67-0.75,2.29c-0.5,0.62-1.11,0.94-1.83,0.94c-0.7,0-1.3-0.31-1.8-0.94
		c-0.5-0.62-0.75-1.39-0.75-2.29c0-0.87,0.25-1.62,0.75-2.25c0.5-0.62,1.1-0.94,1.8-0.94c0.72,0,1.33,0.31,1.83,0.94
		C258.41,117.61,258.67,118.36,258.67,119.23z"/>
	<path class="st1" d="M263.67,113.44l-5.33-8.83h3.35l3.64,6.29l3.64-6.29h3.33l-5.31,8.83l5.21,8.66h-3.35l-3.53-6.1l-3.53,6.1
		h-3.35L263.67,113.44z"/>
	<path class="st1" d="M285.19,104.61c-0.36,0.73-0.77,1.57-1.24,2.51c-0.47,0.94-0.94,1.9-1.43,2.88s-0.96,1.95-1.44,2.9
		c-0.47,0.95-0.89,1.81-1.25,2.57v6.63h-2.68v-6.63c-0.83-1.82-1.71-3.63-2.64-5.43c-0.93-1.8-1.82-3.61-2.66-5.43h3.12
		c0.58,1.2,1.16,2.43,1.76,3.71s1.19,2.51,1.76,3.71c0.28-0.56,0.58-1.16,0.88-1.79c0.31-0.64,0.61-1.28,0.92-1.93
		s0.61-1.28,0.91-1.92c0.3-0.63,0.58-1.22,0.85-1.78H285.19z"/>
	<path class="st1" d="M297.47,105.02L289.65,119h7.55v3.11h-12.26v-0.38l7.84-14.03h-7.24v-3.09h11.94V105.02z"/>
</g>
<g>
	<path d="M107.2,39.55c0,0.31-0.15,0.46-0.46,0.46c-0.22,0-0.56-0.02-1.01-0.06c-0.45-0.04-0.79-0.06-1.01-0.06
		s-0.56,0.02-1.02,0.06c-0.46,0.04-0.8,0.06-1.02,0.06c-0.31,0-0.46-0.2-0.46-0.61c0-1.57,0.05-3.92,0.15-7.05
		c0.1-3.13,0.15-5.49,0.15-7.05c0-0.23-0.05-0.35-0.15-0.35c-0.11,0-0.2,0.07-0.26,0.2c-0.63,1.35-2.12,4.94-4.46,10.77
		c-0.38,1.12-0.93,2.52-1.65,4.2c-0.09,0.16-0.53,0.24-1.33,0.24c-1.16,0-1.8-0.1-1.93-0.31c-0.42-1-1.02-2.4-1.8-4.2
		c-1.02-2.44-2.6-6.08-4.72-10.92c-0.04-0.09-0.12-0.17-0.24-0.26c-0.1,0.07-0.15,0.21-0.15,0.41c0,1.59,0.03,3.98,0.08,7.16
		S86,37.81,86,39.41c0,0.41-0.15,0.61-0.46,0.61c-0.21,0-0.53-0.02-0.96-0.06c-0.43-0.04-0.75-0.06-0.96-0.06
		c-0.22,0-0.55,0.02-0.99,0.06c-0.44,0.04-0.77,0.06-0.99,0.06c-0.31,0-0.46-0.12-0.46-0.35c0-1.37,0.06-3.42,0.19-6.15
		c0.13-2.73,0.19-4.79,0.19-6.15c0-1.42-0.06-3.55-0.19-6.4c-0.13-2.84-0.19-4.98-0.19-6.4c0-0.23,0.14-0.37,0.43-0.41
		c1.68-0.22,2.94-0.33,3.79-0.33c0.12,0,0.3,0.25,0.52,0.76c2.99,6.57,5.55,12.43,7.7,17.59c0.51,1.21,0.81,1.81,0.91,1.81
		c0.12,0,0.39-0.49,0.8-1.48c1.68-4,4-9.93,6.98-17.81c0.19-0.48,0.39-0.72,0.61-0.72c0.42,0,1.05,0.02,1.9,0.07
		c0.85,0.05,1.48,0.07,1.9,0.07c0.31,0,0.46,0.15,0.46,0.44c0,1.42-0.05,3.55-0.14,6.4s-0.14,4.98-0.14,6.4
		c0,1.36,0.05,3.39,0.16,6.11C107.14,36.18,107.2,38.21,107.2,39.55z"/>
	<path d="M127.85,31c0,2.58-0.85,4.78-2.54,6.61c-1.73,1.89-3.87,2.83-6.42,2.83c-2.57,0-4.71-0.94-6.44-2.81
		c-1.69-1.81-2.54-4.01-2.54-6.59s0.85-4.78,2.54-6.59c1.74-1.85,3.89-2.78,6.44-2.78c2.54,0,4.68,0.93,6.4,2.78
		C127,26.25,127.85,28.44,127.85,31z M123.95,31.04c0-1.51-0.46-2.79-1.39-3.85c-0.96-1.12-2.18-1.68-3.67-1.68
		s-2.71,0.56-3.68,1.67c-0.93,1.07-1.39,2.36-1.39,3.87c0,1.48,0.47,2.76,1.41,3.85c0.99,1.15,2.21,1.72,3.67,1.72
		c1.47,0,2.69-0.57,3.67-1.72C123.49,33.8,123.95,32.52,123.95,31.04z"/>
	<path d="M146.44,27.76c0,1.74-0.06,2.75-0.17,3.04c-0.19,0.56-1.18,2.18-3,4.87c-1.86,2.75-2.97,4.2-3.33,4.35
		c-0.17,0.07-0.69,0.11-1.55,0.11c-0.83,0-1.37-0.04-1.63-0.11c-0.35-0.11-1.47-1.51-3.39-4.18c-1.86-2.6-2.91-4.19-3.13-4.76
		c-0.3-0.78-0.44-1.98-0.44-3.61c0-0.51,0.01-1.26,0.04-2.28c0.02-1.01,0.04-1.77,0.04-2.28c0-0.27,0.14-0.41,0.41-0.41
		c0.41,0,1.02,0.02,1.82,0.06c0.81,0.04,1.42,0.06,1.82,0.06c0.22,0,0.33,0.12,0.33,0.37c0,0.39-0.02,0.98-0.07,1.75
		c-0.05,0.77-0.07,1.35-0.07,1.75c0,1.14,0.06,2.17,0.19,3.11c0.06,0.47,0.69,1.62,1.88,3.44c1.19,1.83,1.93,2.74,2.21,2.74
		c0.27,0,0.94-0.89,2.02-2.68c1.06-1.75,1.63-2.86,1.7-3.31c0.1-0.62,0.15-1.68,0.15-3.18c0-0.41-0.04-1.02-0.12-1.83
		c-0.08-0.81-0.12-1.43-0.12-1.83c0-0.19,0.09-0.28,0.28-0.28c0.41,0,1.01-0.02,1.8-0.06c0.79-0.04,1.38-0.06,1.78-0.06
		C146.25,22.52,146.44,24.27,146.44,27.76z"/>
	<path d="M165.32,30.08c0,0.91-0.4,1.52-1.18,1.83c-0.53,0.2-4.35,0.56-11.46,1.09c0.16,1.09,0.76,2.01,1.8,2.78
		c0.99,0.73,2.05,1.09,3.18,1.09c1.95,0,3.74-0.63,5.37-1.89c0.2-0.16,0.39-0.32,0.59-0.48c0.1,0,0.16,0.01,0.19,0.04
		c0.03,0.02,0.26,0.45,0.69,1.29c0.43,0.83,0.65,1.28,0.65,1.34c0,0.07-0.1,0.22-0.3,0.43c-1.81,1.93-4.14,2.89-6.98,2.89
		c-2.86,0-5.15-0.85-6.85-2.56s-2.55-3.99-2.55-6.84c0-2.54,0.81-4.76,2.44-6.65c1.72-1.96,3.82-2.94,6.31-2.94
		c2.32,0,4.26,0.85,5.81,2.55C164.56,25.7,165.32,27.71,165.32,30.08z M160.91,28.95c0-1.02-0.4-1.93-1.21-2.72
		c-0.81-0.79-1.72-1.18-2.73-1.18c-1.14,0-2.14,0.46-3.03,1.37c-0.88,0.91-1.32,1.94-1.32,3.07c0,0.26,0.22,0.39,0.67,0.39
		c1.83,0,4.01-0.19,6.55-0.56C160.56,29.22,160.91,29.1,160.91,28.95z"/>
	<path d="M186.79,39.8c0,0.15-0.14,0.22-0.41,0.22l-2.98,0.02c-0.15,0-0.23-0.01-0.24-0.02c-0.19-0.06-1.25-1.6-3.19-4.61
		c-1.94-3.01-2.95-4.52-3.01-4.54c-0.22,0.16-1.31,1.75-3.28,4.76c-1.89,2.92-2.92,4.39-3.11,4.39h-3.07c-0.28,0-0.43-0.1-0.43-0.3
		v-2.67c0-0.23,1.16-1.89,3.48-4.97c2.32-3.08,3.48-4.74,3.48-4.99c0-0.27-1.15-1.96-3.46-5.07s-3.46-4.76-3.46-4.94v-2.85
		c0-0.17,0.17-0.26,0.5-0.26c0.35,0,0.86,0.01,1.55,0.04c0.69,0.02,1.21,0.04,1.55,0.04c0.06,0,0.29,0.28,0.68,0.85
		c1.16,1.83,2.91,4.55,5.26,8.18c0.06,0.09,0.17,0.18,0.31,0.28c0.17-0.09,1.24-1.67,3.2-4.76c1.94-3.04,2.99-4.55,3.17-4.55h2.92
		c0.32,0,0.48,0.09,0.48,0.26v2.85c0,0.31-1.15,1.99-3.45,5.05s-3.45,4.67-3.45,4.83c0,0.2,1.16,1.87,3.47,5.03s3.47,4.84,3.47,5.06
		V39.8z"/>
	<path d="M219.58,35.74c0,0.15-0.12,0.36-0.35,0.63c-2.41,2.79-5.39,4.18-8.94,4.18c-3.7,0-6.66-1.35-8.89-4.05
		c-2.07-2.52-3.11-5.66-3.11-9.44s1.06-6.94,3.17-9.48c2.25-2.74,5.21-4.11,8.9-4.11c3.74,0,6.63,1.26,8.68,3.79
		c0.2,0.26,0.3,0.48,0.3,0.65c0,0.21-0.33,0.83-0.98,1.86c-0.65,1.03-1.05,1.55-1.18,1.55c-0.16,0-0.54-0.3-1.13-0.91
		c-0.73-0.74-1.41-1.3-2.05-1.67c-1.06-0.6-2.23-0.91-3.52-0.91c-2.44,0-4.34,0.93-5.7,2.8c-1.21,1.67-1.81,3.76-1.81,6.29
		s0.6,4.65,1.8,6.35c1.36,1.91,3.25,2.87,5.68,2.87c1.21,0,2.38-0.3,3.5-0.91c0.74-0.39,1.49-0.96,2.26-1.68
		c0.64-0.6,0.99-0.91,1.06-0.91c0.07,0,0.48,0.49,1.22,1.47C219.2,35.1,219.58,35.64,219.58,35.74z"/>
	<path d="M238.36,31c0,2.58-0.85,4.78-2.54,6.61c-1.73,1.89-3.87,2.83-6.42,2.83c-2.57,0-4.71-0.94-6.44-2.81
		c-1.69-1.81-2.54-4.01-2.54-6.59s0.85-4.78,2.54-6.59c1.74-1.85,3.89-2.78,6.44-2.78c2.54,0,4.68,0.93,6.4,2.78
		C237.51,26.25,238.36,28.44,238.36,31z M234.46,31.04c0-1.51-0.46-2.79-1.39-3.85c-0.96-1.12-2.18-1.68-3.67-1.68
		c-1.48,0-2.71,0.56-3.68,1.67c-0.93,1.07-1.39,2.36-1.39,3.87c0,1.48,0.47,2.76,1.41,3.85c0.99,1.15,2.21,1.72,3.67,1.72
		c1.47,0,2.69-0.57,3.67-1.72C234,33.8,234.46,32.52,234.46,31.04z"/>
	<path d="M258.11,23.23c0,0.9-0.04,2.26-0.11,4.08s-0.11,3.19-0.11,4.1c0,0.9,0.03,2.25,0.08,4.04c0.06,1.8,0.08,3.14,0.08,4.04
		c0,0.25-0.12,0.41-0.35,0.48c-0.1,0.02-1.35,0.04-3.76,0.04c-0.15,0-0.24-0.46-0.27-1.39c-0.03-0.93-0.1-1.39-0.21-1.39
		c-0.06,0-0.15,0.06-0.28,0.17c-2.06,1.79-4.1,2.68-6.11,2.68c-2.73,0-4.53-0.99-5.41-2.96c-0.54-1.22-0.81-3.42-0.81-6.59
		c0-2.86,0.23-5.29,0.68-7.27c0.11-0.48,0.31-0.72,0.61-0.72c0.36,0,0.89,0.01,1.61,0.02c0.72,0.01,1.25,0.02,1.61,0.02
		c0.25,0,0.37,0.14,0.37,0.41c0,0.48-0.08,1.28-0.24,2.41c-0.17,1.2-0.27,2.04-0.28,2.54c-0.04,0.74-0.06,1.55-0.06,2.44
		c0,2.16,0.15,3.61,0.46,4.35c0.53,1.33,1.71,2,3.54,2c0.78,0,1.7-0.38,2.76-1.15c1.12-0.8,1.7-1.57,1.74-2.31
		c0.06-0.93,0.09-4.18,0.09-9.77c0-0.6,0.25-0.91,0.76-0.91h3.05C257.94,22.58,258.11,22.8,258.11,23.23z"/>
	<path d="M272.48,22.64c0,1.36-0.09,2.59-0.28,3.7c-0.04,0.28-0.16,0.43-0.37,0.43c-0.26,0-0.65-0.03-1.18-0.08
		s-0.92-0.08-1.19-0.08c-1.55,0-2.55,0.44-2.98,1.31c-0.26,0.53-0.39,1.64-0.39,3.31v2.04c0,0.69,0.03,1.74,0.08,3.15
		c0.06,1.41,0.08,2.46,0.08,3.15c0,0.33-0.14,0.5-0.43,0.5c-0.38,0-0.96-0.01-1.74-0.02s-1.36-0.02-1.74-0.02
		c-0.28,0-0.43-0.15-0.43-0.46c0-1,0.02-2.51,0.05-4.52c0.03-2.01,0.05-3.52,0.05-4.54c0-3.05-0.28-5.5-0.85-7.35
		c-0.02-0.1-0.04-0.17-0.04-0.22c0-0.15,0.08-0.25,0.24-0.31c0.46-0.05,1.1-0.12,1.93-0.22c1.33-0.25,1.95-0.37,1.85-0.37
		c0.2,0,0.33,0.36,0.39,1.09s0.17,1.09,0.33,1.09c0.02,0,0.06-0.01,0.09-0.04c0.51-0.32,1.01-0.64,1.52-0.96
		c0.56-0.33,1.12-0.58,1.7-0.74c0.48-0.15,1.1-0.22,1.85-0.22C272,22.25,272.48,22.38,272.48,22.64z"/>
	<path d="M279.33,17.88c0,1.52-0.85,2.28-2.54,2.28c-1.72,0-2.57-0.76-2.57-2.28c0-0.68,0.27-1.24,0.8-1.68
		c0.49-0.42,1.09-0.63,1.78-0.63s1.29,0.22,1.79,0.65C279.08,16.64,279.33,17.2,279.33,17.88z M279.2,22.9
		c0,0.95-0.06,2.38-0.18,4.3s-0.18,3.36-0.18,4.32c0,0.9,0.02,2.25,0.06,4.04c0.04,1.8,0.06,3.14,0.06,4.03
		c0,0.26-0.11,0.39-0.33,0.39h-3.61c-0.26,0-0.39-0.25-0.39-0.76c0-0.85,0.02-2.13,0.06-3.84s0.06-3,0.06-3.86
		c0-0.96-0.07-2.41-0.21-4.33c-0.14-1.93-0.21-3.37-0.21-4.33c0-0.21,0.13-0.31,0.39-0.31c0.22,0,0.56,0.03,1.03,0.09
		s0.81,0.09,1.05,0.09s0.58-0.03,1.05-0.09s0.81-0.09,1.05-0.09C279.09,22.54,279.2,22.66,279.2,22.9z"/>
	<path d="M298.54,30.08c0,0.91-0.39,1.52-1.18,1.83c-0.53,0.2-4.35,0.56-11.46,1.09c0.16,1.09,0.76,2.01,1.8,2.78
		c0.99,0.73,2.05,1.09,3.18,1.09c1.95,0,3.74-0.63,5.37-1.89c0.2-0.16,0.39-0.32,0.59-0.48c0.1,0,0.16,0.01,0.19,0.04
		s0.26,0.45,0.69,1.29c0.43,0.83,0.65,1.28,0.65,1.34c0,0.07-0.1,0.22-0.3,0.43c-1.81,1.93-4.14,2.89-6.98,2.89
		c-2.86,0-5.15-0.85-6.85-2.56s-2.55-3.99-2.55-6.84c0-2.54,0.81-4.76,2.44-6.65c1.72-1.96,3.82-2.94,6.31-2.94
		c2.32,0,4.26,0.85,5.81,2.55C297.78,25.7,298.54,27.71,298.54,30.08z M294.14,28.95c0-1.02-0.4-1.93-1.21-2.72
		c-0.81-0.79-1.72-1.18-2.73-1.18c-1.14,0-2.14,0.46-3.03,1.37c-0.88,0.91-1.32,1.94-1.32,3.07c0,0.26,0.22,0.39,0.67,0.39
		c1.83,0,4.01-0.19,6.55-0.56C293.78,29.22,294.14,29.1,294.14,28.95z"/>
	<path d="M311.72,22.64c0,1.36-0.09,2.59-0.28,3.7c-0.04,0.28-0.16,0.43-0.37,0.43c-0.26,0-0.65-0.03-1.18-0.08
		s-0.92-0.08-1.19-0.08c-1.55,0-2.55,0.44-2.98,1.31c-0.26,0.53-0.39,1.64-0.39,3.31v2.04c0,0.69,0.03,1.74,0.08,3.15
		c0.06,1.41,0.08,2.46,0.08,3.15c0,0.33-0.14,0.5-0.43,0.5c-0.38,0-0.96-0.01-1.74-0.02s-1.36-0.02-1.74-0.02
		c-0.28,0-0.43-0.15-0.43-0.46c0-1,0.02-2.51,0.05-4.52c0.03-2.01,0.05-3.52,0.05-4.54c0-3.05-0.28-5.5-0.85-7.35
		c-0.02-0.1-0.04-0.17-0.04-0.22c0-0.15,0.08-0.25,0.24-0.31c0.46-0.05,1.1-0.12,1.93-0.22c1.33-0.25,1.95-0.37,1.85-0.37
		c0.2,0,0.33,0.36,0.39,1.09s0.17,1.09,0.33,1.09c0.02,0,0.06-0.01,0.09-0.04c0.51-0.32,1.01-0.64,1.52-0.96
		c0.56-0.33,1.12-0.58,1.7-0.74c0.48-0.15,1.1-0.22,1.85-0.22C311.24,22.25,311.72,22.38,311.72,22.64z"/>
</g>
</svg>
