<?xml version="1.0" encoding="utf-8"?>
<!-- Generator: Adobe Illustrator 23.1.0, SVG Export Plug-In . SVG Version: 6.00 Build 0)  -->
<svg version="1.1" id="Layer_1" xmlns="http://www.w3.org/2000/svg" xmlns:xlink="http://www.w3.org/1999/xlink" x="0px" y="0px"
	 viewBox="0 0 173 40" style="enable-background:new 0 0 173 40;" xml:space="preserve">
<g>
	<g>
		<g>
			<path d="M0.5,0.49c0,0,12.86-1.02,17.25,1.12S28.36,12.96,33.4,19.28L0.5,0.49z"/>
			<polygon points="0.5,0.49 16.15,19.28 33.4,19.28 			"/>
			<polygon points="1.04,1.14 0.5,0.49 32.21,18.56 33.4,19.28 32.79,19.28 			"/>
		</g>
		<g>
			<path d="M0.51,39.74c0,0,12.86,1.02,17.25-1.12s10.61-11.35,15.65-17.67L0.51,39.74z"/>
			<polygon points="0.51,39.74 16.15,20.95 33.41,20.95 			"/>
			<polygon points="1.05,39.08 0.51,39.74 32.22,21.66 33.41,20.95 32.8,20.95 			"/>
		</g>
	</g>
	<g>
		<path d="M62.02,2.62c0.4,0,0.6,0.2,0.6,0.6V5.9c0,0.42-0.2,0.63-0.6,0.63H48.29c-0.71,0-1.3,0.06-1.77,0.18
			c-0.47,0.12-0.84,0.32-1.11,0.6c-0.27,0.28-0.47,0.66-0.59,1.14c-0.12,0.48-0.18,1.08-0.18,1.81v3.95c0,0.73,0.06,1.34,0.18,1.82
			c0.12,0.48,0.32,0.87,0.59,1.15c0.27,0.28,0.64,0.48,1.11,0.6c0.47,0.12,1.06,0.18,1.77,0.18h9.05c0.47,0,0.82-0.12,1.04-0.37
			c0.22-0.25,0.33-0.68,0.33-1.3v-2.22c0-0.24-0.11-0.36-0.33-0.36h-8.03c-0.4,0-0.6-0.21-0.6-0.63v-2.06c0-0.42,0.2-0.63,0.6-0.63
			h11.43c0.55,0,0.82,0.27,0.82,0.82v6.39c0,1.53-0.29,2.62-0.88,3.25c-0.58,0.63-1.43,0.95-2.52,0.95H48.12
			c-1.39,0-2.57-0.13-3.54-0.38c-0.97-0.26-1.76-0.67-2.37-1.25c-0.61-0.58-1.06-1.32-1.34-2.25c-0.28-0.92-0.42-2.04-0.42-3.36
			V9.85c0-1.32,0.14-2.43,0.42-3.34c0.28-0.91,0.73-1.66,1.34-2.23c0.61-0.58,1.4-1,2.37-1.26c0.97-0.26,2.15-0.4,3.54-0.4H62.02z"
			/>
		<path d="M80.08,6.75c0.33,0,0.49,0.16,0.49,0.49v2.3c0,0.33-0.16,0.49-0.49,0.49h-7.29c-0.58,0-1.07,0.05-1.45,0.15
			c-0.38,0.1-0.69,0.27-0.92,0.49c-0.23,0.23-0.39,0.54-0.48,0.93c-0.09,0.39-0.14,0.87-0.14,1.44v8.14c0,0.4-0.2,0.6-0.6,0.6h-2.69
			c-0.42,0-0.63-0.2-0.63-0.6v-8.88c0-0.99,0.11-1.83,0.33-2.54c0.22-0.7,0.58-1.28,1.08-1.73c0.5-0.45,1.17-0.78,2-0.99
			c0.83-0.21,1.87-0.32,3.11-0.32H80.08z"/>
		<path d="M96.72,6.75c0.93,0,1.7,0.08,2.32,0.23c0.61,0.16,1.1,0.41,1.45,0.77c0.36,0.36,0.61,0.82,0.75,1.4
			c0.15,0.58,0.22,1.27,0.22,2.1v2.6c0,0.59-0.13,0.99-0.38,1.22c-0.26,0.23-0.65,0.34-1.18,0.34H86.06v0.66
			c0,0.86,0.21,1.48,0.62,1.86c0.41,0.38,1.21,0.58,2.4,0.58h11.43c0.33,0,0.49,0.16,0.49,0.49v2.3c0,0.33-0.16,0.49-0.49,0.49
			H88.69c-1.24,0-2.28-0.1-3.11-0.3c-0.83-0.2-1.5-0.53-2-0.97c-0.5-0.45-0.86-1.02-1.08-1.73c-0.22-0.7-0.33-1.55-0.33-2.54v-3.95
			c0-0.99,0.11-1.83,0.33-2.54c0.22-0.7,0.58-1.28,1.08-1.73c0.5-0.45,1.17-0.78,2-0.99c0.83-0.21,1.87-0.32,3.11-0.32H96.72z
			 M86.06,12.98h11.1c0.31,0,0.47-0.16,0.47-0.47v-1.15c0-0.57-0.12-0.97-0.36-1.21c-0.24-0.24-0.68-0.36-1.32-0.36h-6.88
			c-1.19,0-1.99,0.19-2.4,0.56c-0.41,0.37-0.62,1-0.62,1.88V12.98z"/>
		<path d="M118.35,6.75c0.93,0,1.7,0.08,2.32,0.23c0.61,0.16,1.1,0.41,1.45,0.77c0.36,0.36,0.61,0.82,0.75,1.4
			c0.15,0.58,0.22,1.27,0.22,2.1v2.6c0,0.59-0.13,0.99-0.38,1.22c-0.26,0.23-0.65,0.34-1.18,0.34h-13.84v0.66
			c0,0.86,0.21,1.48,0.62,1.86c0.41,0.38,1.21,0.58,2.4,0.58h11.43c0.33,0,0.49,0.16,0.49,0.49v2.3c0,0.33-0.16,0.49-0.49,0.49
			h-11.81c-1.24,0-2.28-0.1-3.11-0.3c-0.83-0.2-1.5-0.53-2-0.97c-0.5-0.45-0.86-1.02-1.08-1.73c-0.22-0.7-0.33-1.55-0.33-2.54v-3.95
			c0-0.99,0.11-1.83,0.33-2.54c0.22-0.7,0.58-1.28,1.08-1.73c0.5-0.45,1.17-0.78,2-0.99c0.83-0.21,1.87-0.32,3.11-0.32H118.35z
			 M107.68,12.98h11.1c0.31,0,0.47-0.16,0.47-0.47v-1.15c0-0.57-0.12-0.97-0.36-1.21c-0.24-0.24-0.68-0.36-1.32-0.36h-6.88
			c-1.19,0-1.99,0.19-2.4,0.56c-0.41,0.37-0.62,1-0.62,1.88V12.98z"/>
		<path d="M140.33,6.75c1.22,0,2.26,0.11,3.1,0.32c0.84,0.21,1.51,0.54,2.01,0.99c0.5,0.45,0.86,1.02,1.08,1.73
			c0.22,0.7,0.33,1.55,0.33,2.54v8.88c0,0.4-0.2,0.6-0.6,0.6h-2.69c-0.4,0-0.6-0.2-0.6-0.6v-7.95c0-0.57-0.04-1.05-0.11-1.44
			c-0.07-0.39-0.22-0.7-0.42-0.93c-0.21-0.23-0.5-0.39-0.86-0.49c-0.37-0.1-0.84-0.15-1.43-0.15h-7.29c-0.58,0-1.07,0.05-1.45,0.15
			c-0.38,0.1-0.69,0.27-0.92,0.49c-0.23,0.23-0.39,0.54-0.48,0.93c-0.09,0.39-0.14,0.87-0.14,1.44v7.95c0,0.4-0.2,0.6-0.6,0.6h-2.69
			c-0.42,0-0.63-0.2-0.63-0.6v-8.88c0-0.99,0.11-1.83,0.33-2.54c0.22-0.7,0.58-1.28,1.08-1.73c0.5-0.45,1.17-0.78,2-0.99
			c0.83-0.21,1.87-0.32,3.11-0.32H140.33z"/>
		<path d="M171.68,2.62c0.26,0,0.4,0.09,0.42,0.26c0.03,0.17-0.02,0.32-0.15,0.45l-8.41,8.52l8.8,9.24
			c0.13,0.13,0.18,0.28,0.15,0.45c-0.03,0.17-0.17,0.26-0.42,0.26h-3.76c-0.22,0-0.39-0.03-0.52-0.08c-0.13-0.05-0.25-0.16-0.36-0.3
			l-6.77-7.1l-6.8,7.1c-0.13,0.15-0.25,0.25-0.37,0.3c-0.12,0.05-0.3,0.08-0.53,0.08h-3.56c-0.24,0-0.37-0.09-0.4-0.26
			c-0.03-0.17,0.02-0.32,0.15-0.45l9.02-9.37l-8.14-8.39c-0.11-0.13-0.16-0.28-0.14-0.45c0.02-0.17,0.16-0.26,0.41-0.26h3.76
			c0.22,0,0.39,0.03,0.52,0.1c0.13,0.06,0.25,0.16,0.36,0.29l5.98,6.36L167.24,3c0.11-0.13,0.23-0.22,0.36-0.29
			c0.13-0.06,0.3-0.1,0.52-0.1H171.68z"/>
	</g>
	<g>
		<path d="M42.65,35.15c-0.61-0.17-1.05-0.39-1.32-0.64c-0.28-0.25-0.41-0.57-0.41-0.94c0-0.42,0.17-0.77,0.51-1.05
			c0.34-0.28,0.78-0.41,1.32-0.41c0.37,0,0.7,0.07,0.99,0.21c0.29,0.14,0.51,0.34,0.67,0.59c0.16,0.25,0.24,0.52,0.24,0.82h-0.71
			c0-0.32-0.1-0.58-0.31-0.77c-0.21-0.19-0.5-0.28-0.87-0.28c-0.35,0-0.62,0.08-0.82,0.23c-0.2,0.15-0.29,0.37-0.29,0.64
			c0,0.22,0.09,0.4,0.28,0.56c0.19,0.15,0.5,0.29,0.95,0.41c0.45,0.13,0.79,0.26,1.05,0.41c0.25,0.15,0.44,0.33,0.56,0.53
			c0.12,0.2,0.18,0.44,0.18,0.71c0,0.43-0.17,0.78-0.51,1.04c-0.34,0.26-0.79,0.39-1.36,0.39c-0.37,0-0.71-0.07-1.03-0.21
			c-0.32-0.14-0.57-0.33-0.74-0.58c-0.17-0.25-0.26-0.52-0.26-0.84h0.71c0,0.32,0.12,0.58,0.36,0.77s0.56,0.28,0.96,0.28
			c0.37,0,0.66-0.08,0.86-0.23s0.3-0.36,0.3-0.62s-0.09-0.47-0.28-0.61C43.47,35.43,43.13,35.29,42.65,35.15z"/>
		<path d="M52,32.17l1.75,4.37l1.75-4.37h0.92v5.36h-0.71v-2.09l0.07-2.25l-1.76,4.34h-0.54l-1.76-4.33l0.07,2.24v2.09h-0.71v-5.36
			H52z"/>
		<path d="M66.18,36.13h-2.25l-0.5,1.4H62.7l2.05-5.36h0.62l2.05,5.36h-0.73L66.18,36.13z M64.14,35.55h1.82l-0.91-2.51L64.14,35.55
			z"/>
		<path d="M75.64,35.37h-1.26v2.17h-0.71v-5.36h1.77c0.6,0,1.07,0.14,1.39,0.41c0.33,0.27,0.49,0.68,0.49,1.2
			c0,0.33-0.09,0.62-0.27,0.87c-0.18,0.25-0.43,0.43-0.75,0.56l1.26,2.28v0.04h-0.76L75.64,35.37z M74.39,34.79h1.09
			c0.35,0,0.63-0.09,0.84-0.27c0.21-0.18,0.31-0.43,0.31-0.73c0-0.33-0.1-0.59-0.3-0.76c-0.2-0.18-0.48-0.27-0.86-0.27h-1.08V34.79z
			"/>
		<path d="M87.27,32.75h-1.72v4.78h-0.7v-4.78h-1.72v-0.58h4.15V32.75z"/>
		<path d="M100.88,37.54v-5.36h1.51c0.47,0,0.88,0.1,1.24,0.31c0.36,0.21,0.64,0.5,0.83,0.88c0.2,0.38,0.29,0.82,0.3,1.31v0.34
			c0,0.51-0.1,0.95-0.29,1.33s-0.47,0.67-0.84,0.88c-0.36,0.2-0.78,0.31-1.26,0.31H100.88z M101.58,32.75v4.21h0.74
			c0.54,0,0.97-0.17,1.27-0.51c0.3-0.34,0.45-0.82,0.45-1.45v-0.31c0-0.61-0.14-1.08-0.43-1.42c-0.29-0.34-0.69-0.51-1.22-0.51
			H101.58z"/>
		<path d="M114.39,35.06h-2.32v1.9h2.7v0.58h-3.41v-5.36h3.37v0.58h-2.66v1.73h2.32V35.06z"/>
		<path d="M121.9,36.96h2.54v0.58h-3.25v-5.36h0.71V36.96z"/>
		<path d="M131.55,37.54h-0.71v-5.36h0.71V37.54z"/>
		<path d="M140.16,36.6l1.53-4.42h0.77l-1.99,5.36h-0.63l-1.98-5.36h0.77L140.16,36.6z"/>
		<path d="M151.76,35.06h-2.32v1.9h2.7v0.58h-3.41v-5.36h3.37v0.58h-2.66v1.73h2.32V35.06z"/>
		<path d="M160.53,35.37h-1.26v2.17h-0.71v-5.36h1.77c0.6,0,1.07,0.14,1.39,0.41c0.33,0.27,0.49,0.68,0.49,1.2
			c0,0.33-0.09,0.62-0.27,0.87s-0.43,0.43-0.75,0.56l1.26,2.28v0.04h-0.76L160.53,35.37z M159.27,34.79h1.09
			c0.35,0,0.63-0.09,0.84-0.27c0.21-0.18,0.31-0.43,0.31-0.73c0-0.33-0.1-0.59-0.3-0.76c-0.2-0.18-0.48-0.27-0.86-0.27h-1.08V34.79z
			"/>
		<path d="M170.2,34.87l1.4-2.69h0.8l-1.85,3.36v2h-0.71v-2L168,32.17h0.81L170.2,34.87z"/>
	</g>
</g>
</svg>
